<svg width="279" height="289" viewBox="0 0 279 289" fill="none" xmlns="http://www.w3.org/2000/svg">
<g clip-path="url(#clip0_9514_138717)">
<path d="M68.3963 242.565C67.9719 245.722 66.313 248.581 63.7846 250.514C61.2563 252.447 58.0655 253.295 54.9144 252.871L31.1298 249.673C27.9787 249.249 25.1252 247.589 23.1971 245.057C21.269 242.525 20.4243 239.329 20.8488 236.172C21.2732 233.015 22.9321 230.156 25.4605 228.223C27.9888 226.29 31.1796 225.442 34.3307 225.866L58.111 229.063C61.2625 229.487 64.1165 231.147 66.0452 233.679C67.974 236.211 68.8197 239.407 68.3963 242.565Z" fill="#0E1E35"/>
<path d="M197.669 259.946C197.245 263.099 195.59 265.956 193.066 267.889C190.543 269.822 187.357 270.673 184.209 270.255L160.407 267.055C157.256 266.631 154.402 264.971 152.474 262.439C150.546 259.907 149.702 256.711 150.126 253.554C150.551 250.397 152.209 247.538 154.738 245.605C157.266 243.672 160.457 242.824 163.608 243.248L187.41 246.448C190.561 246.872 193.414 248.532 195.343 251.064C197.271 253.596 198.115 256.792 197.691 259.949L197.669 259.946Z" fill="#0E1E35"/>
<path d="M217.092 258.872C217.034 259.303 216.892 259.718 216.674 260.093C216.456 260.469 216.166 260.797 215.821 261.061C215.476 261.324 215.083 261.516 214.664 261.627C214.245 261.738 213.808 261.765 213.378 261.707L5.23024 233.721C4.36335 233.605 3.57835 233.148 3.04794 232.451C2.51753 231.755 2.28515 230.876 2.40192 230.007L29.5748 27.9054C29.6321 27.475 29.7735 27.06 29.991 26.6842C30.2085 26.3085 30.4978 25.9794 30.8423 25.7156C31.1868 25.4519 31.5798 25.2588 31.9988 25.1473C32.4178 25.0358 32.8546 25.0082 33.2842 25.0659L241.432 53.0517C241.862 53.1095 242.276 53.2515 242.651 53.4697C243.025 53.6879 243.353 53.978 243.616 54.3233C243.879 54.6687 244.071 55.0626 244.181 55.4824C244.292 55.9023 244.319 56.3399 244.26 56.7702L217.087 258.872L217.092 258.872Z" fill="#0C5FC1"/>
<path d="M200.823 229.733C200.356 233.209 198.53 236.357 195.747 238.485C192.964 240.613 189.451 241.547 185.982 241.082L37.0993 221.065C33.6294 220.598 30.4874 218.77 28.3644 215.982C26.2413 213.194 25.3112 209.674 25.7786 206.198L45.8326 57.0435C46.3021 53.569 48.1294 50.4228 50.913 48.2964C53.6965 46.17 57.2084 45.2375 60.6768 45.7039L209.559 65.7213C213.028 66.1889 216.169 68.0176 218.291 70.8053C220.414 73.5931 221.343 77.1116 220.876 80.5871L200.823 229.733Z" fill="#0B6CE0"/>
<path d="M134.588 89.7044L126.668 88.6396L120.752 132.643L128.671 133.707L134.588 89.7044Z" fill="#5FAFFF"/>
<path d="M108.547 143.968L73.0016 166.774L80.2292 171.453L115.774 148.647L108.547 143.968Z" fill="#5FAFFF"/>
<path d="M137.436 147.853L129.229 150.456L157.488 181.84L165.695 179.237L137.436 147.853Z" fill="#5FAFFF"/>
<path d="M131.042 86.0477C119.721 84.5256 108.203 86.4009 97.9432 91.4363C87.6835 96.4717 79.1431 104.441 73.4022 114.337C67.6613 124.232 64.9776 135.61 65.6905 147.03C66.4034 158.451 70.481 169.401 77.4075 178.497C84.334 187.593 93.7983 194.426 104.604 198.131C115.409 201.837 127.07 202.248 138.113 199.314C149.155 196.38 159.082 190.232 166.639 181.648C174.197 173.063 179.044 162.428 180.569 151.087C182.614 135.878 178.544 120.482 169.256 108.285C159.968 96.0876 146.222 88.0887 131.042 86.0477ZM117.606 185.979C109.199 184.845 101.317 181.239 94.9573 175.617C88.5977 169.995 84.0459 162.609 81.8775 154.394C79.709 146.178 80.0211 137.502 82.7745 129.462C85.5279 121.421 90.5989 114.379 97.3462 109.223C104.094 104.068 112.214 101.032 120.682 100.499C129.149 99.9667 137.582 101.961 144.916 106.23C152.25 110.499 158.154 116.852 161.882 124.484C165.611 132.116 166.996 140.686 165.862 149.109C165.11 154.704 163.265 160.096 160.433 164.977C157.6 169.858 153.836 174.132 149.354 177.556C144.873 180.98 139.763 183.486 134.315 184.931C128.868 186.377 123.19 186.733 117.606 185.979Z" fill="#004D99"/>
<path d="M125.275 128.929C122.42 128.545 119.515 129.018 116.928 130.288C114.34 131.558 112.186 133.567 110.738 136.063C109.29 138.559 108.614 141.428 108.793 144.309C108.973 147.189 110.002 149.95 111.748 152.244C113.495 154.538 115.882 156.262 118.607 157.196C121.333 158.131 124.273 158.235 127.058 157.495C129.843 156.755 132.347 155.204 134.253 153.039C136.159 150.874 137.381 148.192 137.766 145.331C138.282 141.496 137.255 137.613 134.913 134.537C132.57 131.461 129.104 129.443 125.275 128.929Z" fill="#004D99"/>
<path d="M124.292 136.242C122.881 136.052 121.445 136.286 120.166 136.913C118.887 137.541 117.822 138.535 117.106 139.768C116.39 141.002 116.056 142.421 116.145 143.844C116.234 145.268 116.742 146.633 117.605 147.767C118.469 148.901 119.649 149.753 120.996 150.215C122.343 150.677 123.797 150.728 125.174 150.363C126.55 149.997 127.788 149.23 128.73 148.16C129.672 147.09 130.277 145.764 130.467 144.35C130.722 142.454 130.214 140.535 129.056 139.014C127.898 137.493 126.185 136.496 124.292 136.242Z" fill="#0E1E35"/>
<path d="M43.1804 115.339C43.0904 116.008 42.8696 116.653 42.5306 117.238C42.1916 117.822 41.741 118.333 41.2046 118.743C40.6683 119.152 40.0567 119.452 39.4047 119.625C38.7528 119.798 38.0733 119.84 37.4051 119.75C36.0563 119.568 34.8348 118.858 34.0095 117.774C33.1842 116.69 32.8226 115.322 33.0043 113.971L37.272 82.2291C37.4536 80.8778 38.1637 79.6538 39.246 78.8265C40.3283 77.9991 41.6941 77.6362 43.043 77.8176C44.3918 77.999 45.6133 78.7097 46.4386 79.7935C47.2639 80.8773 47.6255 82.2454 47.4438 83.5968L43.1804 115.339Z" fill="#0E1E35"/>
<path d="M32.7 193.266C32.6099 193.936 32.3891 194.581 32.0501 195.165C31.7111 195.749 31.2605 196.261 30.7242 196.67C30.1878 197.08 29.5762 197.38 28.9243 197.553C28.2723 197.725 27.5928 197.768 26.9247 197.677C25.5758 197.496 24.3543 196.785 23.529 195.701C22.7037 194.618 22.3421 193.25 22.5238 191.898L26.7915 160.157C26.9732 158.806 27.6833 157.582 28.7655 156.754C29.8478 155.927 31.2136 155.564 32.5625 155.745C33.9114 155.927 35.1328 156.637 35.9581 157.721C36.7834 158.805 37.145 160.173 36.9633 161.525L32.7 193.266Z" fill="#0E1E35"/>
</g>
<circle cx="237" cy="161" r="26" fill="#231D20" fill-opacity="0.27"/>
<circle cx="233" cy="159" r="26" fill="#FF5AB1"/>
<path d="M239.499 154.667L238.415 154.667L238.415 152.5C238.415 149.51 235.989 147.083 232.999 147.083C230.009 147.083 227.582 149.51 227.582 152.5L227.582 154.667L226.499 154.667C225.307 154.667 224.332 155.642 224.332 156.833L224.332 167.667C224.332 168.858 225.307 169.833 226.499 169.833L239.499 169.833C240.69 169.833 241.665 168.858 241.665 167.667L241.665 156.833C241.665 155.642 240.69 154.667 239.499 154.667ZM232.999 164.417C231.807 164.417 230.832 163.442 230.832 162.25C230.832 161.058 231.807 160.083 232.999 160.083C234.19 160.083 235.165 161.058 235.165 162.25C235.165 163.442 234.19 164.417 232.999 164.417ZM236.357 154.667L229.64 154.667L229.64 152.5C229.64 150.648 231.146 149.142 232.999 149.142C234.851 149.142 236.357 150.648 236.357 152.5L236.357 154.667Z" fill="white"/>
<path d="M119.001 10C118.012 10.0002 117.045 9.70708 116.223 9.15775C115.4 8.60841 114.759 7.82753 114.381 6.91386C114.002 6.00019 113.903 4.99478 114.096 4.02479C114.289 3.05479 114.765 2.16379 115.464 1.46447C116.164 0.765147 117.055 0.288926 118.025 0.0960299C118.995 -0.0968658 120 0.00222913 120.914 0.380785C121.828 0.759341 122.608 1.40035 123.158 2.22274C123.707 3.04514 124 4.01196 124 5.00095C123.998 6.32624 123.471 7.59675 122.534 8.53387C121.597 9.47099 120.326 9.99824 119.001 10ZM119.001 3.43607C118.691 3.43588 118.388 3.52765 118.13 3.69976C117.872 3.87187 117.671 4.11659 117.552 4.40298C117.433 4.68937 117.402 5.00458 117.462 5.30872C117.523 5.61287 117.672 5.8923 117.891 6.11169C118.11 6.33107 118.389 6.48056 118.693 6.54123C118.997 6.60191 119.313 6.57105 119.599 6.45256C119.886 6.33408 120.131 6.13329 120.303 5.87558C120.475 5.61787 120.568 5.31482 120.568 5.00476C120.568 4.79863 120.528 4.59445 120.449 4.40387C120.371 4.21329 120.256 4.04004 120.11 3.89402C119.965 3.748 119.792 3.63207 119.601 3.55284C119.411 3.47361 119.207 3.43264 119.001 3.43227L119.001 3.43607Z" fill="#F9F871"/>
<path d="M112.001 289C111.012 289 110.045 288.707 109.223 288.158C108.4 287.608 107.759 286.828 107.381 285.914C107.002 285 106.903 283.995 107.096 283.025C107.289 282.055 107.765 281.164 108.464 280.464C109.164 279.765 110.055 279.289 111.025 279.096C111.995 278.903 113 279.002 113.914 279.381C114.828 279.759 115.608 280.4 116.158 281.223C116.707 282.045 117 283.012 117 284.001C116.998 285.326 116.471 286.597 115.534 287.534C114.597 288.471 113.326 288.998 112.001 289ZM112.001 282.436C111.691 282.436 111.388 282.528 111.13 282.7C110.872 282.872 110.671 283.117 110.552 283.403C110.433 283.689 110.402 284.005 110.462 284.309C110.523 284.613 110.672 284.892 110.891 285.112C111.11 285.331 111.389 285.481 111.693 285.541C111.997 285.602 112.313 285.571 112.599 285.453C112.886 285.334 113.131 285.133 113.303 284.876C113.475 284.618 113.568 284.315 113.568 284.005C113.568 283.799 113.528 283.594 113.449 283.404C113.371 283.213 113.256 283.04 113.11 282.894C112.965 282.748 112.792 282.632 112.601 282.553C112.411 282.474 112.207 282.433 112.001 282.432L112.001 282.436Z" fill="#55FFA2"/>
<path d="M274.001 199C273.012 199 272.045 198.707 271.223 198.158C270.4 197.608 269.759 196.828 269.381 195.914C269.002 195 268.903 193.995 269.096 193.025C269.289 192.055 269.765 191.164 270.464 190.464C271.164 189.765 272.055 189.289 273.025 189.096C273.995 188.903 275 189.002 275.914 189.381C276.828 189.759 277.608 190.4 278.158 191.223C278.707 192.045 279 193.012 279 194.001C278.998 195.326 278.471 196.597 277.534 197.534C276.597 198.471 275.326 198.998 274.001 199ZM274.001 192.436C273.691 192.436 273.388 192.528 273.13 192.7C272.872 192.872 272.671 193.117 272.552 193.403C272.433 193.689 272.402 194.005 272.462 194.309C272.523 194.613 272.672 194.892 272.891 195.112C273.11 195.331 273.389 195.481 273.693 195.541C273.997 195.602 274.313 195.571 274.599 195.453C274.886 195.334 275.131 195.133 275.303 194.876C275.475 194.618 275.568 194.315 275.568 194.005C275.568 193.799 275.528 193.594 275.449 193.404C275.371 193.213 275.256 193.04 275.11 192.894C274.965 192.748 274.792 192.632 274.601 192.553C274.411 192.474 274.207 192.433 274.001 192.432L274.001 192.436Z" fill="#F9F871"/>
<g clip-path="url(#clip1_9514_138717)">
<path d="M26.972 24.2024H13V19.6829H22.4761V10H26.972V24.2024Z" fill="#FF5AB1"/>
<path d="M47.2455 24.2024H33.2734V10H37.7694V19.6829H47.2455V24.2024Z" fill="#FF5AB1"/>
<path d="M27.5981 41.9998H23.1022V32.3169H13.6289V27.7974H27.5981V41.9998Z" fill="#FF5AB1"/>
<path d="M37.7694 41.9998H33.2734V27.7974H47.2455V32.3169H37.7694V41.9998Z" fill="#FF5AB1"/>
</g>
<defs>
<clipPath id="clip0_9514_138717">
<rect width="216.621" height="222.887" fill="white" transform="translate(30.0156 24.6309) rotate(7.65758)"/>
</clipPath>
<clipPath id="clip1_9514_138717">
<rect width="34.2456" height="32" fill="white" transform="translate(13 10)"/>
</clipPath>
</defs>
</svg>
