<svg width="218" height="327" viewBox="0 0 218 327" fill="none" xmlns="http://www.w3.org/2000/svg">
<path d="M203.001 149C202.012 149 201.045 148.707 200.223 148.158C199.4 147.608 198.759 146.828 198.381 145.914C198.002 145 197.903 143.995 198.096 143.025C198.289 142.055 198.765 141.164 199.464 140.464C200.164 139.765 201.055 139.289 202.025 139.096C202.995 138.903 204 139.002 204.914 139.381C205.828 139.759 206.608 140.4 207.158 141.223C207.707 142.045 208 143.012 208 144.001C207.998 145.326 207.471 146.597 206.534 147.534C205.597 148.471 204.326 148.998 203.001 149ZM203.001 142.436C202.691 142.436 202.388 142.528 202.13 142.7C201.872 142.872 201.671 143.117 201.552 143.403C201.433 143.689 201.402 144.005 201.462 144.309C201.523 144.613 201.672 144.892 201.891 145.112C202.11 145.331 202.389 145.481 202.693 145.541C202.997 145.602 203.313 145.571 203.599 145.453C203.886 145.334 204.131 145.133 204.303 144.876C204.475 144.618 204.568 144.315 204.568 144.005C204.568 143.799 204.528 143.594 204.449 143.404C204.371 143.213 204.256 143.04 204.11 142.894C203.965 142.748 203.792 142.632 203.601 142.553C203.411 142.474 203.207 142.433 203.001 142.432L203.001 142.436Z" fill="#FF5AB1"/>
<path d="M51.001 310C50.012 310 49.0451 309.707 48.2227 309.158C47.4004 308.608 46.7593 307.828 46.3808 306.914C46.0022 306 45.9031 304.995 46.096 304.025C46.2889 303.055 46.7651 302.164 47.4645 301.464C48.1638 300.765 49.0548 300.289 50.0248 300.096C50.9948 299.903 52.0002 300.002 52.9139 300.381C53.8275 300.759 54.6084 301.4 55.1577 302.223C55.7071 303.045 56.0002 304.012 56 305.001C55.9982 306.326 55.471 307.597 54.5339 308.534C53.5967 309.471 52.3262 309.998 51.001 310ZM51.001 303.436C50.6909 303.436 50.3877 303.528 50.1298 303.7C49.8719 303.872 49.6708 304.117 49.552 304.403C49.4331 304.689 49.4019 305.005 49.4622 305.309C49.5225 305.613 49.6717 305.892 49.8908 306.112C50.1099 306.331 50.3891 306.481 50.6932 306.541C50.9973 306.602 51.3125 306.571 51.5991 306.453C51.8856 306.334 52.1306 306.133 52.303 305.876C52.4754 305.618 52.5675 305.315 52.5677 305.005C52.5681 304.799 52.5279 304.594 52.4493 304.404C52.3708 304.213 52.2555 304.04 52.11 303.894C51.9645 303.748 51.7917 303.632 51.6014 303.553C51.4111 303.474 51.2071 303.433 51.001 303.432L51.001 303.436Z" fill="#FFDA3E"/>
<path d="M20.001 42C19.012 42.0002 18.0451 41.7071 17.2227 41.1577C16.4004 40.6084 15.7593 39.8275 15.3808 38.9139C15.0022 38.0002 14.9031 36.9948 15.096 36.0248C15.2889 35.0548 15.7651 34.1638 16.4645 33.4645C17.1638 32.7651 18.0548 32.2889 19.0248 32.096C19.9948 31.9031 21.0002 32.0022 21.9139 32.3808C22.8275 32.7593 23.6084 33.4004 24.1577 34.2227C24.7071 35.0451 25.0002 36.012 25 37.001C24.9982 38.3262 24.471 39.5967 23.5339 40.5339C22.5967 41.471 21.3262 41.9982 20.001 42ZM20.001 35.4361C19.6909 35.4359 19.3877 35.5276 19.1298 35.6998C18.8719 35.8719 18.6708 36.1166 18.552 36.403C18.4331 36.6894 18.4019 37.0046 18.4622 37.3087C18.5225 37.6129 18.6717 37.8923 18.8908 38.1117C19.1099 38.3311 19.3891 38.4806 19.6932 38.5412C19.9973 38.6019 20.3125 38.571 20.5991 38.4526C20.8856 38.3341 21.1306 38.1333 21.303 37.8756C21.4754 37.6179 21.5675 37.3148 21.5677 37.0048C21.5681 36.7986 21.5279 36.5944 21.4493 36.4039C21.3708 36.2133 21.2555 36.04 21.11 35.894C20.9645 35.748 20.7917 35.6321 20.6014 35.5528C20.4111 35.4736 20.2071 35.4326 20.001 35.4323L20.001 35.4361Z" fill="#0FCE65"/>
<g clip-path="url(#clip0_9514_138532)">
<path fill-rule="evenodd" clip-rule="evenodd" d="M149.252 305.853C145.4 321.148 130.563 323.499 115.256 319.644L36.1484 299.721C20.8251 295.861 10.5814 287.194 14.4334 271.899L68.9619 47.3097C72.8139 32.0146 87.6489 30.5282 102.983 34.39L182.08 54.3105C197.403 58.1696 207.632 65.9684 203.78 81.2634L149.252 305.853Z" fill="#0853C1"/>
<path d="M139.365 76.9462C156.01 74.0525 167.145 58.2294 164.236 41.6043C161.327 24.9792 145.475 13.8477 128.83 16.7414C112.185 19.6351 101.05 35.4583 103.959 52.0834C106.869 68.7084 122.72 79.8399 139.365 76.9462Z" fill="#FFDA3E"/>
<path d="M153.678 51.7766C152.704 55.6439 150.604 59.1351 147.642 61.8088C144.681 64.4824 140.991 66.2183 137.04 66.7971C133.089 67.3759 129.054 66.7715 125.445 65.0603C121.837 63.3491 118.816 60.6081 116.766 57.1837C114.716 53.7594 113.729 49.8056 113.929 45.8223C114.128 41.839 115.506 38.0051 117.888 34.8055C120.27 31.6058 123.549 29.1841 127.311 27.8466C131.072 26.5091 135.147 26.3158 139.02 27.2913C141.592 27.9389 144.011 29.086 146.139 30.667C148.268 32.248 150.064 34.232 151.425 36.5057C152.786 38.7794 153.686 41.2982 154.072 43.9184C154.459 46.5386 154.325 49.2088 153.678 51.7766Z" fill="#FFB41F"/>
<path fill-rule="evenodd" clip-rule="evenodd" d="M143.373 298.683C139.521 313.978 124.684 316.328 109.377 312.473L30.2695 292.55C14.9462 288.691 4.70248 280.024 8.55451 264.729L63.083 40.1392C66.935 24.8442 81.77 23.3578 97.104 27.2196L176.185 47.136C191.508 50.9952 201.737 58.7939 197.885 74.0889L143.373 298.683Z" fill="#0F91FB"/>
<path d="M155.354 48.7171L114.479 38.4229C113.367 38.1427 112.238 38.8161 111.958 39.927C111.678 41.038 112.354 42.1657 113.466 42.4459L154.341 52.7401C155.453 53.0203 156.582 52.3469 156.862 51.236C157.142 50.125 156.467 48.9973 155.354 48.7171Z" fill="#0B70DD"/>
<path fill-rule="evenodd" clip-rule="evenodd" d="M191.41 72.1917L134.641 297.599C134.479 298.244 134.191 298.85 133.793 299.384C133.396 299.917 132.898 300.367 132.326 300.707C131.754 301.048 131.121 301.273 130.463 301.369C129.804 301.465 129.133 301.43 128.487 301.267L18.5237 273.572C17.2641 273.254 16.1743 272.466 15.4784 271.37C14.7825 270.274 14.5336 268.954 14.7828 267.681C14.803 267.601 14.8232 267.52 14.8434 267.44L71.6147 42.0215C71.9427 40.719 72.7755 39.6003 73.9299 38.9116C75.0842 38.2229 76.4656 38.0206 77.77 38.3491L187.728 66.0419C188.746 66.2934 189.658 66.8597 190.335 67.6598C190.866 68.2728 191.242 69.0051 191.429 69.7943C191.616 70.5834 191.61 71.406 191.41 72.1917Z" fill="#124896"/>
<path d="M117.651 178.98C134.295 176.087 145.43 160.264 142.521 143.638C139.612 127.013 123.76 115.882 107.115 118.776C90.47 121.669 79.335 137.492 82.2444 154.118C85.1537 170.743 101.006 181.874 117.651 178.98Z" fill="#134077"/>
<path d="M166.215 62.8991C163.246 69.3994 158.088 74.6529 151.639 77.7458C145.19 80.8387 137.857 81.5753 130.917 79.8274C123.977 78.0796 117.868 73.9579 113.653 68.1792C109.438 62.4006 107.384 55.3307 107.848 48.1992L166.215 62.8991Z" fill="#134077"/>
<path d="M155.865 60.2921C153.668 64.0866 150.292 67.0619 146.249 68.7672C142.205 70.4725 137.715 70.8149 133.457 69.7426C129.2 68.6704 125.407 66.2418 122.654 62.8248C119.9 59.4078 118.337 55.1885 118.199 50.8062L155.865 60.2921Z" fill="#134077"/>
<path d="M161.93 59.5446C158.961 66.0449 153.803 71.2984 147.354 74.3913C140.904 77.4842 133.572 78.2208 126.632 76.473C119.692 74.7251 113.583 70.6034 109.368 64.8247C105.153 59.0461 103.099 51.9762 103.562 44.8447L161.93 59.5446Z" fill="#FFDA3E"/>
<path d="M151.579 56.9376C149.383 60.7321 146.007 63.7074 141.964 65.4127C137.92 67.118 133.43 67.4604 129.172 66.3881C124.914 65.3159 121.122 62.8873 118.369 59.4703C115.615 56.0533 114.051 51.834 113.914 47.4517L151.579 56.9376Z" fill="#FFB41F"/>
<path d="M114.713 174.827C131.358 171.933 142.493 156.11 139.584 139.485C136.674 122.86 120.822 111.728 104.177 114.622C87.5325 117.516 76.3975 133.339 79.3069 149.964C82.2162 166.589 98.0681 177.72 114.713 174.827Z" fill="#FFDA3E"/>
<path d="M129.027 149.657C128.054 153.524 125.955 157.016 122.993 159.691C120.032 162.365 116.343 164.102 112.392 164.682C108.441 165.261 104.405 164.658 100.796 162.947C97.187 161.236 94.1661 158.496 92.1156 155.071C90.065 151.647 89.0768 147.693 89.2761 143.71C89.4754 139.726 90.8531 135.892 93.235 132.692C95.6169 129.492 98.8961 127.07 102.658 125.732C106.419 124.394 110.495 124.201 114.368 125.177C116.939 125.823 119.359 126.97 121.487 128.55C123.616 130.131 125.412 132.114 126.773 134.387C128.134 136.661 129.034 139.179 129.421 141.799C129.808 144.419 129.674 147.089 129.027 149.657Z" fill="#FFB41F"/>
<path d="M120.479 297.17C133.181 294.961 141.678 282.887 139.458 270.2C137.238 257.514 125.141 249.02 112.44 251.228C99.7381 253.436 91.2411 265.51 93.4612 278.197C95.6813 290.883 107.778 299.378 120.479 297.17Z" fill="#FFDA3E"/>
<path d="M131.401 277.963C130.658 280.914 129.055 283.578 126.795 285.619C124.536 287.659 121.72 288.983 118.705 289.425C115.69 289.867 112.612 289.405 109.858 288.1C107.104 286.794 104.8 284.702 103.235 282.089C101.671 279.476 100.917 276.459 101.07 273.42C101.222 270.38 102.274 267.455 104.091 265.013C105.909 262.572 108.411 260.724 111.281 259.703C114.151 258.683 117.261 258.535 120.216 259.279C122.179 259.773 124.025 260.648 125.65 261.854C127.274 263.06 128.645 264.574 129.684 266.309C130.723 268.045 131.409 269.967 131.704 271.967C131.998 273.966 131.896 276.004 131.401 277.963Z" fill="#FFB41F"/>
<path d="M89.7584 279.416C106.764 276.459 118.14 260.293 115.168 243.308C112.196 226.322 96.0002 214.95 78.9945 217.906C61.9889 220.863 50.6127 237.029 53.5851 254.014C56.5574 270.999 72.7528 282.372 89.7584 279.416Z" fill="#FFDA3E"/>
<path d="M104.379 253.703C103.384 257.654 101.238 261.221 98.2128 263.952C95.1872 266.684 91.4179 268.457 87.3815 269.049C83.3451 269.64 79.2229 269.022 75.5362 267.274C71.8496 265.526 68.764 262.726 66.6697 259.227C64.5754 255.729 63.5664 251.69 63.7704 247.62C63.9744 243.551 65.3821 239.634 67.8156 236.366C70.2491 233.097 73.5991 230.623 77.4418 229.256C81.2846 227.89 85.4476 227.692 89.4044 228.689C92.0317 229.351 94.503 230.522 96.6775 232.138C98.8519 233.753 100.687 235.78 102.077 238.102C103.468 240.425 104.387 242.999 104.782 245.675C105.177 248.352 105.04 251.08 104.379 253.703Z" fill="#FFB41F"/>
<path d="M42.1698 247.259C38.9234 246.446 35.5341 246.386 32.262 247.084C28.99 247.783 25.9222 249.221 23.2941 251.288C20.666 253.355 18.5475 255.996 17.1012 259.009C15.6548 262.021 14.9191 265.325 14.9505 268.667C14.9603 269.352 14.9955 270.027 15.0669 270.693C15.2764 271.354 15.6519 271.951 16.1577 272.426C16.6635 272.901 17.2826 273.238 17.956 273.407L53.6872 282.405C56.042 279.564 57.6377 276.173 58.3255 272.548C59.0132 268.923 58.7707 265.183 57.6204 261.675C56.4702 258.168 54.4497 255.008 51.7473 252.49C49.0449 249.972 45.7487 248.178 42.1657 247.275L42.1698 247.259Z" fill="#FFDA3E"/>
<path d="M50.8402 271.971C50.0021 275.327 47.9811 278.268 45.1474 280.255L23.9252 274.91C22.8834 272.83 22.3606 270.53 22.4012 268.205C22.4418 265.881 23.0448 263.601 24.1586 261.56C25.2724 259.52 26.864 257.779 28.7978 256.486C30.7316 255.193 32.9501 254.386 35.2642 254.135C37.5783 253.884 39.9193 254.195 42.0877 255.042C44.256 255.89 46.1873 257.248 47.7169 259.002C49.2465 260.756 50.329 262.852 50.8722 265.114C51.4153 267.375 51.403 269.733 50.8361 271.987L50.8402 271.971Z" fill="#FFB41F"/>
<path d="M113.459 289.59L112.445 293.614C112.142 294.817 110.985 295.749 109.152 296.397L50.4682 281.617C49.0661 280.126 48.4423 278.689 48.7616 277.444L49.7735 273.426L52.013 273.99L57.3708 275.34L105.911 287.661L111.269 289.01L113.459 289.59Z" fill="#EDA80F"/>
<path d="M113.459 289.59C112.672 292.715 106.158 294.01 96.9953 293.335L62.7911 284.721C54.2264 280.857 48.9651 276.591 49.7627 273.424C50.9955 268.529 66.2724 268.183 83.8593 272.647C101.446 277.11 114.705 284.687 113.459 289.59Z" fill="#FFDA3E"/>
<path d="M83.8593 272.641C66.2724 268.178 51.0009 268.525 49.7627 273.418C48.9651 276.585 54.221 280.873 62.7911 284.715L96.9953 293.33C106.165 293.978 112.662 292.724 113.459 289.585C114.704 284.687 101.45 277.111 83.8593 272.641ZM111.212 289.025C111.109 289.437 109.319 291.023 102.483 291.179C96.249 291.316 88.2365 290.236 79.9252 288.126C71.614 286.016 64.085 283.152 58.6452 280.047C52.7141 276.653 51.8958 274.405 52.0009 273.988C52.106 273.57 53.901 271.986 60.7321 271.829C66.971 271.693 74.9835 272.772 83.2894 274.881C91.5953 276.99 99.1565 279.862 104.569 282.96C110.471 286.335 111.314 288.578 111.214 289.02L111.212 289.025Z" fill="#FFDA3E"/>
<path d="M82.6306 277.485C69.6862 274.225 60.6938 274.39 57.3427 275.344C59.8409 277.776 67.6518 282.235 80.5895 285.522C93.5272 288.809 102.526 288.617 105.883 287.665C103.381 285.248 95.5737 280.773 82.6306 277.485Z" fill="#FFB41F"/>
<path d="M82.3179 278.67C81.0851 283.565 65.8229 283.943 48.2225 279.51C30.6222 275.078 17.3595 267.516 18.5923 262.621L19.6055 258.598L83.3311 274.647L82.3179 278.67Z" fill="#EDA80F"/>
<path d="M83.3329 274.647C82.1001 279.542 66.8379 279.92 49.2376 275.487C31.6372 271.055 18.3745 263.493 19.6073 258.598C20.8401 253.703 36.1023 253.325 53.7026 257.758C71.303 262.191 84.5657 269.752 83.3329 274.647Z" fill="#FFDA3E"/>
<path d="M53.1381 260C61.4534 262.094 69.0133 264.948 74.4343 268.037C80.3735 271.421 81.1917 273.67 81.088 274.082C80.9843 274.494 79.1973 276.092 72.3635 276.259C66.13 276.396 58.1107 275.344 49.8008 273.251C41.4908 271.158 33.9256 268.303 28.5046 265.214C22.5654 261.829 21.7418 259.579 21.8469 259.162C21.952 258.745 23.7416 257.159 30.5754 256.991C36.8089 256.854 44.8228 257.905 53.1381 260ZM53.7026 257.758C36.1023 253.325 20.8401 253.703 19.6073 258.598C18.3745 263.493 31.6372 271.055 49.2376 275.487C66.8379 279.92 82.1001 279.542 83.3329 274.647C84.5657 269.752 71.3137 262.193 53.7026 257.758Z" fill="#FFDA3E"/>
<path d="M52.4807 262.605C65.4305 265.866 73.2508 270.311 75.7504 272.738C72.3993 273.692 63.4001 273.906 50.4557 270.646C37.5113 267.386 29.687 262.935 27.1874 260.507C30.5385 259.554 39.531 259.344 52.4807 262.605Z" fill="#FFB41F"/>
<path d="M133.216 298.873C130.64 303.219 115.897 299.25 100.277 290.008C84.6569 280.766 74.0909 269.759 76.6668 265.413L78.7781 261.849L135.332 295.31L133.216 298.873Z" fill="#EDA80F"/>
<path d="M135.334 295.31C132.759 299.651 118.011 295.681 102.395 286.445C86.7786 277.21 76.2086 266.197 78.7792 261.849C81.3498 257.501 96.1035 261.473 111.718 270.714C127.333 279.954 137.91 290.964 135.334 295.31Z" fill="#FFDA3E"/>
<path d="M110.544 272.699C117.923 277.061 124.358 281.941 128.677 286.443C133.412 291.373 133.562 293.76 133.338 294.131C133.114 294.501 130.955 295.516 124.355 293.74C118.331 292.115 110.946 288.816 103.572 284.455C96.1978 280.095 89.7542 275.206 85.4352 270.705C80.7 265.775 80.5546 263.389 80.7722 263.023C80.9898 262.656 83.1605 261.639 89.7558 263.413C95.7859 265.034 103.166 268.332 110.544 272.699ZM111.715 270.719C96.1003 261.478 81.352 257.508 78.776 261.854C76.2 266.2 86.7768 277.21 102.391 286.451C118.006 295.691 132.754 299.661 135.33 295.315C137.906 290.969 127.335 279.96 111.716 270.713L111.715 270.719Z" fill="#FFDA3E"/>
<path d="M109.17 275.01C120.66 281.807 126.905 288.295 128.603 291.328C125.114 291.291 116.43 288.939 104.941 282.143C93.4508 275.347 87.2051 268.858 85.5076 265.825C88.9967 265.862 97.6814 268.208 109.17 275.01Z" fill="#FFB41F"/>
<path d="M94.9416 259.406C94.9922 264.453 80.3209 268.683 62.1782 268.847C44.0356 269.011 29.2819 265.062 29.2312 260.015L29.1928 255.869L94.9031 255.237L94.9416 259.406Z" fill="#EDA80F"/>
<path d="M94.9059 255.237C94.9566 260.285 80.2907 264.516 62.1466 264.686C44.0026 264.855 29.2516 260.896 29.201 255.848C29.1504 250.801 43.8176 246.564 61.9616 246.394C80.1057 246.225 94.8446 250.21 94.9059 255.237Z" fill="#FFDA3E"/>
<path d="M61.9765 248.731C70.544 248.647 78.5904 249.501 84.6164 251.116C91.2198 252.881 92.5918 254.831 92.5872 255.279C92.5825 255.728 91.2653 257.7 84.6984 259.59C78.708 261.319 70.6845 262.319 62.1143 262.391C53.5441 262.463 45.5058 261.621 39.4784 260.012C32.8764 258.242 31.503 256.297 31.509 255.844C31.5149 255.39 32.8308 253.423 39.3923 251.531C45.3882 249.804 53.4063 248.802 61.9765 248.731ZM61.9556 246.416C43.8115 246.585 29.1456 250.817 29.1949 255.869C29.2442 260.922 44.0193 264.877 62.1406 264.707C80.2618 264.538 94.9505 260.306 94.8999 255.259C94.8493 250.211 80.1036 246.253 61.961 246.394L61.9556 246.416Z" fill="#FFDA3E"/>
<path d="M62.0078 251.412C75.3589 251.293 84.0504 253.613 87.087 255.333C84.0831 257.103 75.4359 259.584 62.0888 259.71C48.7417 259.836 40.0462 257.51 37.0083 255.795C40.0135 254.02 48.6554 251.537 62.0078 251.412Z" fill="#FFB41F"/>
<path d="M127.175 285.126C123.984 289.038 109.983 282.941 95.9081 271.499C81.8334 260.058 72.9978 247.61 76.1829 243.696L78.8042 240.482L129.79 281.916L127.175 285.126Z" fill="#EDA80F"/>
<path d="M129.793 281.91C126.608 285.824 112.608 279.721 98.5262 268.284C84.4448 256.847 75.6159 244.394 78.8077 240.476C81.9994 236.558 95.9998 242.661 110.076 254.097C124.152 265.533 132.985 277.992 129.793 281.91Z" fill="#FFDA3E"/>
<path d="M108.614 255.891C115.269 261.299 120.919 267.074 124.522 272.157C128.486 277.707 128.272 280.116 128.005 280.43C127.738 280.744 125.442 281.446 119.172 278.718C113.454 276.22 106.651 271.878 99.9852 266.49C93.3199 261.102 87.6856 255.308 84.0748 250.234C80.1231 244.659 80.3234 242.28 80.5918 241.961C80.8602 241.642 83.1618 240.941 89.4248 243.674C95.1442 246.167 101.946 250.514 108.612 255.902L108.614 255.891ZM110.072 254.108C95.9958 242.672 82.0102 236.578 78.8037 240.487C75.5972 244.395 84.4422 256.852 98.5222 268.295C112.602 279.737 126.583 285.83 129.789 281.921C132.995 278.012 124.156 265.557 110.072 254.108Z" fill="#FFDA3E"/>
<path d="M106.92 257.974C117.278 266.391 122.491 273.723 123.723 276.997C120.279 276.443 112.036 272.842 101.678 264.425C91.3199 256.007 86.1111 248.682 84.8695 245.4C88.315 245.949 96.5572 249.555 106.922 257.968" fill="#FFB41F"/>
<path opacity="0.11" d="M190.341 67.638L51.7874 120.731L55.5761 105.688L170.44 61.6871L187.729 66.0415C188.746 66.2862 189.66 66.8448 190.341 67.638Z" fill="#CFE7FF"/>
<path opacity="0.11" d="M188.374 84.2501L186.481 91.7666L45.4782 145.785L47.3726 138.263L188.374 84.2501Z" fill="#CFE7FF"/>
</g>
<circle cx="46" cy="94" r="26" fill="#231D20" fill-opacity="0.27"/>
<circle cx="42" cy="92" r="26" fill="#FF5AB1"/>
<path d="M48.4987 87.6668L47.4154 87.6668L47.4154 85.5002C47.4154 82.5102 44.9887 80.0835 41.9987 80.0835C39.0087 80.0835 36.582 82.5102 36.582 85.5002L36.582 87.6668L35.4987 87.6668C34.307 87.6668 33.332 88.6418 33.332 89.8335L33.332 100.667C33.332 101.858 34.307 102.833 35.4987 102.833L48.4987 102.833C49.6904 102.833 50.6654 101.858 50.6654 100.667L50.6654 89.8335C50.6654 88.6418 49.6904 87.6668 48.4987 87.6668ZM41.9987 97.4168C40.807 97.4168 39.832 96.4418 39.832 95.2502C39.832 94.0585 40.807 93.0835 41.9987 93.0835C43.1904 93.0835 44.1654 94.0585 44.1654 95.2502C44.1654 96.4418 43.1904 97.4168 41.9987 97.4168ZM45.357 87.6668L38.6404 87.6668L38.6404 85.5002C38.6404 83.6477 40.1462 82.1418 41.9987 82.1418C43.8512 82.1418 45.357 83.6477 45.357 85.5002L45.357 87.6668Z" fill="white"/>
<g clip-path="url(#clip1_9514_138532)">
<path d="M194.356 193.585L194.355 193.585L176.147 181.077C176.147 181.077 176.147 181.076 176.146 181.076C175.895 180.904 175.585 180.821 175.282 180.845C175.281 180.845 175.281 180.845 175.281 180.845L153.265 182.575L153.264 182.575C153.01 182.595 152.792 182.686 152.63 182.816L151.38 181.255L152.63 182.816C152.47 182.944 152.369 183.105 152.324 183.274C152.324 183.274 152.324 183.274 152.324 183.274L147.732 200.408L147.732 200.409C146.084 206.548 148.29 213.005 151.731 218.671C155.144 224.293 159.562 228.782 161.71 230.804L194.356 193.585ZM194.356 193.585C194.566 193.729 194.709 193.918 194.785 194.111C194.859 194.302 194.866 194.492 194.821 194.661C194.821 194.661 194.821 194.661 194.821 194.661L190.23 211.795C188.585 217.933 183.443 222.423 177.63 225.61M194.356 193.585L177.63 225.61M177.63 225.61C171.862 228.771 165.791 230.451 162.919 231.128L177.63 225.61ZM162.275 231.116C162.057 231.057 161.863 230.948 161.711 230.805L162.919 231.128C162.716 231.176 162.493 231.174 162.275 231.116Z" fill="#0094FF" stroke="#55C2FF" stroke-width="4"/>
<g clip-path="url(#clip2_9514_138532)">
<path d="M165.2 208.597L162.48 203.886L162.23 203.453L161.797 203.703L160.083 204.693L159.65 204.943L159.9 205.376L163.86 212.235L164.11 212.668L164.543 212.418L179.24 203.932L179.673 203.682L179.423 203.249L178.433 201.535L178.183 201.102L177.75 201.352L165.2 208.597Z" fill="white" stroke="white"/>
</g>
</g>
<g clip-path="url(#clip3_9514_138532)">
<path d="M194.972 62.2024L181 62.2024L181 57.6829L190.476 57.6829L190.476 48L194.972 48L194.972 62.2024Z" fill="#FF5AB1"/>
<path d="M215.245 62.2024L201.273 62.2024L201.273 48L205.769 48L205.769 57.6829L215.245 57.6829L215.245 62.2024Z" fill="#FF5AB1"/>
<path d="M195.598 79.9998L191.102 79.9998L191.102 70.3169L181.629 70.3169L181.629 65.7974L195.598 65.7974L195.598 79.9998Z" fill="#FF5AB1"/>
<path d="M205.769 79.9998L201.273 79.9998L201.273 65.7974L215.245 65.7974L215.245 70.3169L205.769 70.3169L205.769 79.9998Z" fill="#FF5AB1"/>
</g>
<defs>
<clipPath id="clip0_9514_138532">
<rect width="148.454" height="299.691" fill="white" transform="translate(73.1914) rotate(14.1359)"/>
</clipPath>
<clipPath id="clip1_9514_138532">
<rect width="48" height="56" fill="white" transform="translate(153.066 172.742) rotate(15)"/>
</clipPath>
<clipPath id="clip2_9514_138532">
<rect width="24" height="24" fill="white" transform="translate(160.516 191.303) rotate(15)"/>
</clipPath>
<clipPath id="clip3_9514_138532">
<rect width="34.2456" height="32" fill="white" transform="translate(181 48)"/>
</clipPath>
</defs>
</svg>
