<svg width="313" height="278" viewBox="0 0 313 278" fill="none" xmlns="http://www.w3.org/2000/svg">
<path d="M157.001 10C156.012 10.0002 155.045 9.70708 154.223 9.15775C153.4 8.60841 152.759 7.82753 152.381 6.91386C152.002 6.00019 151.903 4.99478 152.096 4.02479C152.289 3.05479 152.765 2.16379 153.464 1.46447C154.164 0.765147 155.055 0.288926 156.025 0.0960299C156.995 -0.0968658 158 0.00222913 158.914 0.380785C159.828 0.759341 160.608 1.40035 161.158 2.22274C161.707 3.04514 162 4.01196 162 5.00095C161.998 6.32624 161.471 7.59675 160.534 8.53387C159.597 9.47099 158.326 9.99824 157.001 10ZM157.001 3.43607C156.691 3.43588 156.388 3.52765 156.13 3.69976C155.872 3.87187 155.671 4.11659 155.552 4.40298C155.433 4.68937 155.402 5.00458 155.462 5.30872C155.523 5.61287 155.672 5.8923 155.891 6.11169C156.11 6.33107 156.389 6.48056 156.693 6.54123C156.997 6.60191 157.313 6.57105 157.599 6.45256C157.886 6.33408 158.131 6.13329 158.303 5.87558C158.475 5.61787 158.568 5.31482 158.568 5.00476C158.568 4.79863 158.528 4.59445 158.449 4.40387C158.371 4.21329 158.256 4.04004 158.11 3.89402C157.965 3.748 157.792 3.63207 157.601 3.55284C157.411 3.47361 157.207 3.43264 157.001 3.43227L157.001 3.43607Z" fill="#F9F871"/>
<path d="M239.001 278C238.012 278 237.045 277.707 236.223 277.158C235.4 276.608 234.759 275.827 234.381 274.914C234.002 274 233.903 272.995 234.096 272.025C234.289 271.055 234.765 270.164 235.464 269.464C236.164 268.765 237.055 268.289 238.025 268.096C238.995 267.903 240 268.002 240.914 268.381C241.828 268.759 242.608 269.4 243.158 270.222C243.707 271.045 244 272.012 244 273.001C243.998 274.326 243.471 275.597 242.534 276.534C241.597 277.471 240.326 277.998 239.001 278ZM239.001 271.436C238.691 271.436 238.388 271.527 238.13 271.7C237.872 271.872 237.671 272.116 237.552 272.403C237.433 272.689 237.402 273.004 237.462 273.308C237.523 273.613 237.672 273.892 237.891 274.111C238.11 274.331 238.389 274.48 238.693 274.541C238.997 274.602 239.313 274.571 239.599 274.452C239.886 274.334 240.131 274.133 240.303 273.875C240.475 273.618 240.568 273.315 240.568 273.005C240.568 272.798 240.528 272.594 240.449 272.404C240.371 272.213 240.256 272.04 240.11 271.894C239.965 271.748 239.792 271.632 239.601 271.553C239.411 271.473 239.207 271.432 239.001 271.432L239.001 271.436Z" fill="#FFDA3E"/>
<path d="M23.001 118C22.012 118 21.0451 117.707 20.2227 117.158C19.4004 116.608 18.7593 115.828 18.3808 114.914C18.0022 114 17.9031 112.995 18.096 112.025C18.2889 111.055 18.7651 110.164 19.4645 109.464C20.1638 108.765 21.0548 108.289 22.0248 108.096C22.9948 107.903 24.0002 108.002 24.9139 108.381C25.8275 108.759 26.6084 109.4 27.1577 110.223C27.7071 111.045 28.0002 112.012 28 113.001C27.9982 114.326 27.471 115.597 26.5339 116.534C25.5967 117.471 24.3262 117.998 23.001 118ZM23.001 111.436C22.6909 111.436 22.3877 111.528 22.1298 111.7C21.8719 111.872 21.6708 112.117 21.552 112.403C21.4331 112.689 21.4019 113.005 21.4622 113.309C21.5225 113.613 21.6717 113.892 21.8908 114.112C22.1099 114.331 22.3891 114.481 22.6932 114.541C22.9973 114.602 23.3125 114.571 23.5991 114.453C23.8856 114.334 24.1306 114.133 24.303 113.876C24.4754 113.618 24.5675 113.315 24.5677 113.005C24.5681 112.799 24.5279 112.594 24.4493 112.404C24.3708 112.213 24.2555 112.04 24.11 111.894C23.9645 111.748 23.7917 111.632 23.6014 111.553C23.4111 111.474 23.2071 111.433 23.001 111.432L23.001 111.436Z" fill="#F9F871"/>
<path d="M284.741 117.529L287.11 86.8227C287.674 79.5152 282.203 73.1338 274.891 72.5694L50.1197 55.2218C42.807 54.6574 36.4216 60.1237 35.8576 67.4312L33.4877 98.1373C32.9238 105.445 38.3947 111.826 45.7075 112.391L270.478 129.738C277.791 130.303 284.177 124.836 284.741 117.529Z" fill="#338759" fill-opacity="0.46"/>
<path d="M285.195 111.636L287.565 80.9301C288.129 73.6226 282.658 67.2412 275.346 66.6768L50.5745 49.3292C43.2618 48.7648 36.8764 54.2312 36.3124 61.5386L33.9426 92.2447C33.3786 99.5522 38.8496 105.934 46.1623 106.498L270.933 123.846C278.246 124.41 284.631 118.944 285.195 111.636Z" fill="#ABFDD0"/>
<rect x="102.579" y="84.4297" width="151" height="6.04" rx="3.02" transform="rotate(4.72623 102.579 84.4297)" fill="white"/>
<rect x="102.579" y="84.4297" width="105" height="6" rx="3" transform="rotate(4.72623 102.579 84.4297)" fill="#10B259"/>
<path d="M103.887 78.5172L104.579 70.1457L106.397 70.296L108.625 75.8264L111.695 70.734L113.512 70.8843L112.82 79.2557L111.289 79.1292L111.767 73.3529L109.056 77.7405L107.848 77.6406L105.895 72.8674L105.418 78.6437L103.887 78.5172ZM115.052 82.0893L116.678 79.1773L116.319 79.1476L114.468 73.4197L116.131 73.5571L117.448 77.8683L119.527 73.8379L121.154 73.9724L116.679 82.2237L115.052 82.0893ZM124.789 80.2452L125.481 71.8738L128.554 72.1279C129.224 72.1833 129.765 72.3444 130.176 72.6112C130.596 72.8707 130.898 73.2046 131.081 73.6131C131.264 74.0136 131.337 74.449 131.298 74.9194C131.255 75.4297 131.081 75.8849 130.775 76.285C130.477 76.6859 130.037 76.9585 129.455 77.1031L130.9 80.7505L129.142 80.6051L127.86 77.1759L126.592 77.0711L126.319 80.3718L124.789 80.2452ZM126.685 75.9469L128.132 76.0665C128.643 76.1087 129.028 76.0161 129.287 75.7887C129.547 75.5614 129.693 75.2444 129.727 74.8378C129.76 74.4391 129.667 74.1103 129.447 73.8514C129.236 73.5931 128.867 73.4422 128.341 73.3986L126.906 73.28L126.685 75.9469ZM134.832 81.2201C134.234 81.1706 133.714 80.9992 133.273 80.7059C132.832 80.4125 132.498 80.0237 132.274 79.5396C132.049 79.0554 131.961 78.5103 132.011 77.9044C132.062 77.2905 132.235 76.7549 132.53 76.2976C132.832 75.841 133.222 75.4999 133.698 75.2744C134.183 75.0416 134.736 74.9509 135.358 75.0023C135.94 75.0504 136.444 75.2205 136.869 75.5125C137.294 75.8045 137.612 76.184 137.822 76.6509C138.041 77.1105 138.128 77.6114 138.084 78.1536C138.076 78.2413 138.065 78.3326 138.049 78.4276C138.041 78.5233 138.029 78.6226 138.012 78.7256L133.504 78.3529C133.497 78.8179 133.627 79.1939 133.892 79.4807C134.165 79.7682 134.509 79.9291 134.924 79.9634C135.235 79.9891 135.499 79.9427 135.718 79.8243C135.945 79.6986 136.12 79.5284 136.242 79.3137L137.796 79.4423C137.654 79.8078 137.438 80.1351 137.149 80.4243C136.869 80.7062 136.53 80.919 136.133 81.0628C135.744 81.2072 135.31 81.2596 134.832 81.2201ZM135.255 76.246C134.88 76.215 134.541 76.2953 134.236 76.4869C133.932 76.6704 133.722 76.9742 133.607 77.3981L136.56 77.6423C136.569 77.2497 136.451 76.9269 136.207 76.6739C135.963 76.421 135.646 76.2783 135.255 76.246ZM139.229 81.4391L139.719 75.5073L141.07 75.619L141.107 76.6335C141.319 76.2979 141.605 76.0406 141.965 75.8616C142.333 75.6833 142.753 75.6136 143.223 75.6525C143.956 75.7132 144.507 75.9915 144.876 76.4875C145.244 76.9836 145.391 77.6781 145.318 78.571L145.041 81.9196L143.51 81.793L143.775 78.588C143.817 78.0777 143.746 77.6785 143.561 77.3903C143.376 77.1021 143.064 76.9398 142.626 76.9036C142.195 76.868 141.828 76.9901 141.524 77.27C141.228 77.5506 141.057 77.9619 141.012 78.5041L140.759 81.5656L139.229 81.4391ZM149.267 82.269C148.645 82.2176 148.159 82.0249 147.81 81.691C147.46 81.357 147.317 80.8034 147.381 80.03L147.595 77.4468L146.578 77.3628L146.684 76.0832L147.701 76.1672L148.011 74.5915L149.363 74.7032L149.231 76.2938L150.834 76.4262L150.728 77.7059L149.126 77.5734L148.911 80.1685C148.887 80.4556 148.931 80.6598 149.041 80.7813C149.16 80.8955 149.371 80.9651 149.674 80.9902L150.415 81.0515L150.308 82.355L149.267 82.269Z" fill="#1D5C3A"/>
<rect x="42.9324" y="54.4102" width="46" height="46" rx="10" transform="rotate(4.72623 42.9324 54.4102)" fill="#91EFBC"/>
<g clip-path="url(#clip0_3295_1255)">
<path d="M74.8472 74.4183L53.9597 72.6914L52.6351 88.713L73.5226 90.4399L74.8472 74.4183Z" fill="#E5489B"/>
<path d="M64.3852 73.7527L53.9433 72.8894L59.5733 68.3729L65.2033 63.8565L70.0189 69.2365L74.8308 74.6163L64.3852 73.7527Z" fill="#E5489B"/>
<path d="M76.2061 74.4137L65.7887 62.9225C65.7819 62.9144 65.7747 62.9101 65.7678 62.902C65.761 62.8939 65.7579 62.8861 65.7507 62.8818C65.7404 62.8696 65.7258 62.8647 65.7155 62.8525C65.698 62.836 65.6768 62.8192 65.6553 62.8062C65.6338 62.7931 65.6161 62.7803 65.5946 62.7673C65.5731 62.7542 65.5513 62.7449 65.5295 62.7355C65.5077 62.7262 65.4859 62.7169 65.4603 62.7072C65.4385 62.6979 65.4164 62.6923 65.3906 62.6864C65.3647 62.6805 65.3426 62.6749 65.3164 62.6728C65.2943 62.6672 65.2682 62.665 65.2457 62.6632C65.2196 62.661 65.1971 62.6592 65.1744 62.661C65.1479 62.6626 65.1255 62.6608 65.0991 62.6623C65.0763 62.6642 65.0495 62.6695 65.0268 62.6714C65.0038 62.677 64.9773 62.6786 64.9539 62.688C64.9309 62.6936 64.9076 62.7029 64.8845 62.7086C64.8612 62.7179 64.8381 62.7235 64.8182 62.7369C64.7948 62.7463 64.7749 62.7597 64.7513 62.7728C64.7394 62.7793 64.7239 62.7856 64.7117 62.7959C64.7036 62.8027 64.6993 62.8099 64.6915 62.813C64.6834 62.8199 64.6756 62.823 64.6675 62.8298L52.5044 72.4541C52.1944 72.6994 52.1788 73.1158 52.4686 73.3881C52.6048 73.516 52.7867 73.5913 52.9736 73.6067C53.1791 73.6237 53.3905 73.5697 53.5518 73.44L65.1107 64.2963L75.0148 75.2145C75.1525 75.3689 75.3522 75.4569 75.5578 75.4739C75.7446 75.4893 75.9327 75.4447 76.0918 75.3412C76.4186 75.1199 76.4719 74.7028 76.2061 74.4137Z" fill="#821A56"/>
<path d="M64.7938 66.9004C63.112 66.7613 61.6274 68.0158 61.488 69.7013C61.349 71.383 62.6034 72.8677 64.2889 73.0071C65.9707 73.1461 67.4554 71.8917 67.5947 70.2062C67.73 68.5241 66.4756 67.0394 64.7938 66.9004ZM64.3523 72.2409C63.0891 72.1365 62.1501 71.0241 62.2542 69.7646C62.3586 68.5014 63.471 67.5624 64.7305 67.6665C65.9937 67.771 66.9327 68.8834 66.8286 70.1428C66.7241 71.406 65.6117 72.345 64.3523 72.2409Z" fill="#821A56"/>
<path d="M73.4546 86.9386L69.6426 86.6234L66.5892 86.371L63.5359 86.1186L63.0762 86.0806L59.7202 85.8031L56.6668 85.5507L53.1576 85.2605C52.9483 85.2432 52.7622 85.4009 52.7449 85.6102L52.5051 88.5103C52.4878 88.7196 52.6455 88.9057 52.8548 88.923L56.364 89.2132L59.4174 89.4656L62.7734 89.7431L63.2331 89.7811L66.2864 90.0335L69.3398 90.2859L73.1555 90.6014C73.3648 90.6187 73.5509 90.461 73.5682 90.2517L73.808 87.3516C73.8216 87.142 73.6676 86.9562 73.4546 86.9386ZM53.4795 86.0547L56.2263 86.2818L56.0496 88.4195L53.3027 88.1924L53.4795 86.0547ZM56.9887 86.3449L59.2759 86.534L59.0992 88.6717L56.812 88.4826L56.9887 86.3449ZM59.8653 88.735L60.0421 86.5973L62.6357 86.8117L62.459 88.9494L59.8653 88.735ZM63.6773 89.0502L63.8541 86.9125L66.1413 87.1016L65.9645 89.2393L63.6773 89.0502ZM66.7307 89.3026L66.9074 87.1649L69.1946 87.354L69.0179 89.4917L66.7307 89.3026ZM72.8336 89.8072L69.7803 89.5547L69.957 87.417L73.0103 87.6695L72.8336 89.8072Z" fill="#821A56"/>
<path d="M66.7684 70.5062C67.0738 69.276 66.3242 68.0312 65.094 67.7257C63.8639 67.4203 62.619 68.1699 62.3136 69.4C62.0081 70.6302 62.7577 71.8751 63.9879 72.1805C65.2181 72.486 66.4629 71.7363 66.7684 70.5062Z" fill="#FFAE39"/>
<path d="M62.785 71.1256C63.488 70.8601 64.2795 70.7073 64.9137 70.4098C65.5753 70.0995 66.1246 69.6896 66.5827 69.2007C66.402 68.6101 65.9648 68.1186 65.3804 67.8596C65.0681 68.4057 64.6293 68.8887 64.013 69.2893C63.4763 69.6362 62.896 69.9194 62.3129 70.191C62.386 70.5357 62.5512 70.8579 62.785 71.1256Z" fill="#FFCC88"/>
<path d="M67.3306 77.4051L60.4615 76.8372C60.2522 76.8199 60.0661 76.9776 60.0488 77.1869L59.0774 88.9368C59.0601 89.1461 59.2178 89.3322 59.4271 89.3495L66.2924 89.9171C66.5017 89.9344 66.6878 89.7767 66.7051 89.5674L67.6765 77.8175C67.6976 77.6085 67.5399 77.4224 67.3306 77.4051Z" fill="#821A56"/>
<path d="M65.7965 84.3073C66.133 84.3351 66.4283 84.0849 66.4561 83.7485C66.4839 83.412 66.2337 83.1168 65.8973 83.0889C65.5608 83.0611 65.2655 83.3113 65.2377 83.6477C65.2099 83.9842 65.4601 84.2795 65.7965 84.3073Z" fill="#FFCC88"/>
</g>
<path d="M279.385 182.308L281.755 151.602C282.319 144.294 276.848 137.913 269.535 137.349L44.764 120.001C37.4512 119.437 31.0659 124.903 30.5019 132.211L28.132 162.917C27.568 170.224 33.039 176.605 40.3518 177.17L265.123 194.517C272.435 195.082 278.821 189.616 279.385 182.308Z" fill="#338759" fill-opacity="0.46"/>
<path d="M279.84 176.415L282.21 145.709C282.774 138.402 277.303 132.02 269.99 131.456L45.2188 114.109C37.9061 113.544 31.5207 119.01 30.9567 126.318L28.5869 157.024C28.0229 164.332 33.4938 170.713 40.8066 171.277L265.578 188.625C272.89 189.189 279.276 183.723 279.84 176.415Z" fill="#ABFDD0"/>
<rect x="97.2234" y="149.209" width="151" height="6.04" rx="3.02" transform="rotate(4.72623 97.2234 149.209)" fill="white"/>
<rect x="97.2234" y="149.209" width="55" height="6" rx="3" transform="rotate(4.72623 97.2234 149.209)" fill="#10B259"/>
<path d="M100.959 143.497L98.5893 134.873L100.228 135.008L102.033 142.009L104.976 135.401L106.59 135.534L102.836 143.652L100.959 143.497ZM108.251 144.245C107.741 144.202 107.329 144.088 107.015 143.902C106.702 143.707 106.477 143.468 106.34 143.183C106.203 142.899 106.148 142.594 106.175 142.267C106.22 141.717 106.472 141.288 106.931 140.981C107.39 140.673 108.05 140.555 108.911 140.627L110.418 140.751L110.43 140.608C110.464 140.201 110.373 139.893 110.157 139.682C109.942 139.472 109.663 139.352 109.32 139.324C109.009 139.298 108.732 139.352 108.488 139.484C108.245 139.608 108.084 139.812 108.004 140.094L106.509 139.97C106.585 139.543 106.759 139.18 107.033 138.882C107.314 138.584 107.661 138.368 108.074 138.233C108.487 138.091 108.94 138.04 109.435 138.081C110.28 138.151 110.928 138.417 111.38 138.88C111.831 139.343 112.025 139.961 111.961 140.734L111.659 144.382L110.356 144.274L110.291 143.305C110.089 143.61 109.821 143.853 109.484 144.033C109.156 144.215 108.745 144.285 108.251 144.245ZM108.697 143.077C109.135 143.114 109.486 142.998 109.749 142.731C110.02 142.464 110.204 142.122 110.303 141.705L109 141.597C108.593 141.564 108.296 141.615 108.108 141.752C107.92 141.881 107.818 142.053 107.8 142.269C107.781 142.5 107.854 142.687 108.019 142.829C108.184 142.971 108.41 143.054 108.697 143.077ZM116.134 144.896C115.528 144.846 115.005 144.67 114.564 144.369C114.123 144.068 113.787 143.671 113.555 143.178C113.33 142.686 113.243 142.137 113.293 141.531C113.343 140.925 113.52 140.398 113.822 139.949C114.131 139.501 114.529 139.165 115.013 138.94C115.497 138.715 116.042 138.627 116.648 138.677C117.405 138.74 118.027 138.992 118.512 139.434C118.998 139.867 119.284 140.437 119.37 141.142L117.756 141.009C117.7 140.715 117.559 140.479 117.333 140.299C117.115 140.113 116.847 140.006 116.528 139.98C116.106 139.945 115.734 140.075 115.412 140.369C115.091 140.664 114.907 141.094 114.86 141.66C114.813 142.226 114.924 142.681 115.193 143.024C115.461 143.368 115.807 143.557 116.23 143.592C116.548 143.618 116.83 143.561 117.075 143.421C117.327 143.281 117.505 143.067 117.609 142.779L119.224 142.912C119.025 143.57 118.65 144.081 118.098 144.445C117.546 144.808 116.891 144.959 116.134 144.896ZM122.563 145.428C122.053 145.386 121.641 145.271 121.327 145.085C121.014 144.89 120.789 144.651 120.652 144.367C120.515 144.082 120.46 143.777 120.487 143.45C120.533 142.9 120.785 142.471 121.244 142.164C121.702 141.857 122.362 141.739 123.223 141.81L124.73 141.935L124.742 141.791C124.776 141.384 124.685 141.076 124.47 140.865C124.254 140.655 123.975 140.536 123.632 140.507C123.321 140.481 123.044 140.535 122.8 140.667C122.557 140.792 122.396 140.995 122.316 141.277L120.821 141.154C120.897 140.727 121.071 140.364 121.345 140.065C121.626 139.767 121.973 139.551 122.386 139.417C122.799 139.274 123.253 139.224 123.747 139.264C124.592 139.334 125.24 139.601 125.692 140.063C126.143 140.526 126.337 141.144 126.273 141.918L125.971 145.565L124.668 145.457L124.603 144.489C124.402 144.793 124.133 145.036 123.797 145.217C123.469 145.398 123.057 145.469 122.563 145.428ZM123.009 144.261C123.447 144.297 123.798 144.181 124.061 143.914C124.332 143.647 124.517 143.306 124.615 142.888L123.312 142.781C122.905 142.747 122.608 142.799 122.42 142.936C122.233 143.065 122.13 143.237 122.112 143.452C122.093 143.683 122.166 143.87 122.331 144.012C122.496 144.154 122.722 144.237 123.009 144.261ZM130.113 145.908C129.491 145.856 129.005 145.663 128.656 145.329C128.306 144.996 128.163 144.442 128.227 143.669L128.441 141.085L127.424 141.001L127.53 139.722L128.546 139.806L128.857 138.23L130.209 138.342L130.077 139.932L131.68 140.065L131.574 141.344L129.971 141.212L129.757 143.807C129.733 144.094 129.776 144.298 129.887 144.42C130.006 144.534 130.217 144.604 130.52 144.629L131.261 144.69L131.153 145.994L130.113 145.908ZM134.015 139.331C133.736 139.308 133.512 139.205 133.342 139.022C133.181 138.84 133.11 138.622 133.131 138.367C133.152 138.111 133.257 137.911 133.446 137.766C133.643 137.614 133.881 137.55 134.16 137.573C134.439 137.596 134.66 137.698 134.821 137.88C134.991 138.055 135.066 138.27 135.045 138.525C135.024 138.78 134.915 138.984 134.717 139.136C134.528 139.289 134.294 139.354 134.015 139.331ZM132.683 146.12L133.173 140.188L134.704 140.315L134.214 146.247L132.683 146.12ZM138.766 146.767C138.192 146.72 137.684 146.546 137.244 146.244C136.811 145.944 136.478 145.551 136.245 145.066C136.021 144.574 135.934 144.021 135.985 143.407C136.036 142.793 136.216 142.266 136.525 141.826C136.835 141.378 137.228 141.041 137.704 140.816C138.189 140.591 138.718 140.502 139.292 140.55C139.858 140.596 140.357 140.77 140.79 141.071C141.231 141.372 141.563 141.769 141.787 142.261C142.02 142.746 142.111 143.295 142.06 143.909C142.01 144.523 141.829 145.054 141.519 145.502C141.218 145.943 140.825 146.275 140.341 146.5C139.857 146.725 139.332 146.814 138.766 146.767ZM138.875 145.44C139.274 145.473 139.633 145.354 139.952 145.083C140.272 144.805 140.457 144.371 140.506 143.781C140.554 143.191 140.443 142.736 140.173 142.417C139.903 142.089 139.573 141.909 139.182 141.877C138.775 141.843 138.412 141.966 138.092 142.244C137.781 142.516 137.6 142.946 137.552 143.536C137.503 144.126 137.61 144.585 137.871 144.911C138.142 145.231 138.477 145.407 138.875 145.44ZM143.303 146.998L143.794 141.066L145.145 141.178L145.182 142.192C145.394 141.857 145.68 141.6 146.04 141.421C146.408 141.242 146.827 141.173 147.298 141.211C148.031 141.272 148.582 141.55 148.951 142.047C149.319 142.543 149.466 143.237 149.392 144.13L149.116 147.479L147.585 147.352L147.85 144.147C147.892 143.637 147.821 143.237 147.636 142.949C147.451 142.661 147.139 142.499 146.701 142.463C146.27 142.427 145.903 142.549 145.599 142.829C145.303 143.11 145.132 143.521 145.087 144.063L144.834 147.125L143.303 146.998ZM153.166 147.813L156.92 139.695L158.642 139.837L161.011 148.462L159.385 148.328L158.875 146.335L155.61 146.065L154.768 147.946L153.166 147.813ZM156.128 144.904L158.555 145.104L157.623 141.523L156.128 144.904ZM165.677 148.992C165.231 148.955 164.847 148.839 164.526 148.644C164.205 148.449 163.953 148.192 163.771 147.871L163.537 148.671L162.173 148.558L162.885 139.948L164.416 140.074L164.124 143.602C164.337 143.355 164.608 143.144 164.935 142.971C165.27 142.798 165.689 142.732 166.191 142.774C166.75 142.82 167.237 142.996 167.653 143.304C168.069 143.611 168.385 144.01 168.601 144.502C168.818 144.993 168.901 145.538 168.851 146.136C168.802 146.734 168.63 147.258 168.336 147.707C168.043 148.148 167.666 148.486 167.205 148.721C166.745 148.948 166.235 149.038 165.677 148.992ZM165.465 147.626C165.952 147.666 166.368 147.536 166.714 147.236C167.06 146.935 167.254 146.526 167.297 146.008C167.34 145.489 167.215 145.05 166.924 144.688C166.633 144.327 166.244 144.126 165.758 144.086C165.264 144.045 164.843 144.179 164.496 144.488C164.159 144.789 163.968 145.199 163.925 145.717C163.882 146.235 164.003 146.674 164.286 147.035C164.578 147.388 164.971 147.585 165.465 147.626ZM170.094 149.213L170.585 143.281L171.948 143.394L172 144.518C172.247 144.153 172.563 143.874 172.948 143.681C173.342 143.481 173.79 143.402 174.292 143.443L174.158 145.058L173.728 145.022C173.393 144.994 173.09 145.022 172.818 145.103C172.547 145.185 172.324 145.348 172.152 145.59C171.987 145.833 171.886 146.182 171.849 146.637L171.625 149.34L170.094 149.213ZM177.685 149.985C177.111 149.938 176.603 149.763 176.163 149.462C175.73 149.161 175.397 148.768 175.164 148.284C174.94 147.791 174.854 147.238 174.904 146.625C174.955 146.011 175.135 145.484 175.444 145.044C175.754 144.596 176.147 144.259 176.624 144.033C177.108 143.809 177.637 143.72 178.211 143.767C178.777 143.814 179.276 143.988 179.709 144.288C180.15 144.59 180.482 144.987 180.706 145.479C180.939 145.964 181.03 146.513 180.98 147.127C180.929 147.741 180.748 148.272 180.438 148.72C180.137 149.16 179.744 149.493 179.26 149.718C178.776 149.943 178.251 150.032 177.685 149.985ZM177.795 148.658C178.193 148.691 178.552 148.572 178.872 148.301C179.192 148.023 179.376 147.588 179.425 146.998C179.474 146.408 179.363 145.954 179.092 145.634C178.822 145.307 178.492 145.127 178.101 145.095C177.695 145.061 177.331 145.184 177.011 145.462C176.7 145.733 176.52 146.164 176.471 146.754C176.422 147.344 176.529 147.802 176.791 148.129C177.061 148.448 177.396 148.625 177.795 148.658ZM184.256 150.528C183.746 150.486 183.334 150.372 183.02 150.185C182.707 149.991 182.482 149.752 182.345 149.467C182.208 149.183 182.153 148.877 182.18 148.551C182.225 148 182.477 147.572 182.936 147.264C183.395 146.957 184.055 146.839 184.916 146.91L186.423 147.035L186.435 146.891C186.468 146.485 186.378 146.176 186.162 145.966C185.947 145.755 185.668 145.636 185.325 145.608C185.014 145.582 184.737 145.635 184.493 145.768C184.25 145.892 184.088 146.095 184.009 146.378L182.514 146.254C182.589 145.827 182.764 145.464 183.037 145.166C183.319 144.868 183.666 144.652 184.078 144.517C184.492 144.375 184.945 144.324 185.44 144.365C186.285 144.435 186.933 144.701 187.384 145.164C187.836 145.627 188.03 146.245 187.966 147.018L187.664 150.666L186.36 150.558L186.296 149.589C186.094 149.894 185.825 150.136 185.489 150.317C185.161 150.499 184.75 150.569 184.256 150.528ZM184.701 149.361C185.14 149.397 185.491 149.282 185.754 149.015C186.024 148.748 186.209 148.406 186.308 147.989L185.004 147.881C184.598 147.847 184.301 147.899 184.113 148.036C183.925 148.165 183.823 148.337 183.805 148.552C183.786 148.784 183.859 148.97 184.024 149.112C184.189 149.254 184.414 149.337 184.701 149.361ZM191.959 151.165C191.401 151.119 190.914 150.942 190.498 150.635C190.082 150.328 189.766 149.928 189.549 149.437C189.333 148.945 189.25 148.401 189.299 147.803C189.349 147.205 189.52 146.685 189.813 146.244C190.108 145.794 190.485 145.456 190.945 145.229C191.406 144.995 191.915 144.9 192.473 144.946C192.92 144.983 193.304 145.099 193.625 145.294C193.946 145.49 194.197 145.747 194.38 146.067L194.668 142.575L196.199 142.702L195.487 151.312L194.124 151.2L194.027 150.337C193.813 150.584 193.539 150.794 193.204 150.967C192.876 151.141 192.462 151.207 191.959 151.165ZM192.393 149.852C192.887 149.893 193.303 149.763 193.641 149.462C193.988 149.154 194.183 148.74 194.225 148.222C194.268 147.704 194.144 147.268 193.852 146.915C193.569 146.554 193.18 146.353 192.686 146.313C192.199 146.272 191.783 146.402 191.437 146.703C191.091 147.004 190.897 147.413 190.854 147.931C190.811 148.449 190.935 148.889 191.227 149.25C191.518 149.612 191.907 149.812 192.393 149.852Z" fill="#1D5C3A"/>
<rect x="37.5767" y="119.189" width="46" height="46" rx="10" transform="rotate(4.72623 37.5767 119.189)" fill="#91EFBC"/>
<path d="M50.2991 150.876L50.164 152.509C50.1196 153.047 50.5207 153.521 51.0588 153.565L52.393 153.676L52.6087 151.067L50.2991 150.876Z" fill="#603F39"/>
<path d="M52.6405 155.006C53.5219 155.079 54.2954 154.423 54.3683 153.542C54.4411 152.66 53.7857 151.887 52.9044 151.814C52.0231 151.741 51.2495 152.397 51.1767 153.278C51.1038 154.159 51.7592 154.933 52.6405 155.006Z" fill="#35201B"/>
<path d="M53.6694 153.484C53.6283 153.981 53.1916 154.347 52.6983 154.307C52.2013 154.265 51.8348 153.829 51.8755 153.335C51.9166 152.838 52.3533 152.472 52.8466 152.513C53.344 152.55 53.7105 152.987 53.6694 153.484Z" fill="#603F39"/>
<path d="M65.3975 152.124L65.2625 153.757C65.218 154.295 64.7446 154.697 64.2064 154.652L62.8722 154.542L63.0879 151.933L65.3975 152.124Z" fill="#603F39"/>
<path d="M62.4059 155.813C63.2872 155.886 64.0608 155.23 64.1336 154.349C64.2065 153.468 63.5511 152.694 62.6698 152.621C61.7884 152.548 61.0149 153.204 60.942 154.085C60.8692 154.966 61.5246 155.74 62.4059 155.813Z" fill="#35201B"/>
<path d="M61.6409 154.143C61.5998 154.64 61.9704 155.073 62.4637 155.114C62.9608 155.155 63.394 154.785 63.4348 154.291C63.4759 153.794 63.1053 153.361 62.612 153.32C62.1153 153.275 61.682 153.646 61.6409 154.143Z" fill="#603F39"/>
<path d="M64.2629 153.652L51.1638 152.569C50.2034 152.49 49.4869 151.644 49.5663 150.684L50.8108 135.63C50.8903 134.67 51.7359 133.953 52.6964 134.033L65.7954 135.116C66.7559 135.195 67.4724 136.041 67.393 137.001L66.1485 152.055C66.069 153.015 65.2234 153.732 64.2629 153.652Z" fill="#F9804B"/>
<path d="M53.4833 151.139L52.8405 151.086C52.6125 151.067 52.4445 150.869 52.4633 150.641L53.6616 136.148C53.6804 135.92 53.8787 135.752 54.1067 135.771L54.7495 135.824C54.9774 135.843 55.1454 136.041 55.1266 136.269L53.928 150.766C53.9058 150.99 53.7075 151.158 53.4833 151.139Z" fill="#B55437"/>
<path d="M57.9119 151.505C57.5082 151.472 57.2065 151.116 57.2399 150.712L58.385 136.862C58.4184 136.458 58.7744 136.157 59.1781 136.19C59.5817 136.223 59.8834 136.579 59.85 136.983L58.7046 150.837C58.6715 151.237 58.3192 151.539 57.9119 151.505Z" fill="#B55437"/>
<path d="M62.5349 151.888C62.1313 151.854 61.8296 151.498 61.863 151.094L63.008 137.244C63.0414 136.841 63.3975 136.539 63.8011 136.572C64.2047 136.606 64.5064 136.962 64.473 137.365L63.3277 151.219C63.2909 151.619 62.9385 151.921 62.5349 151.888Z" fill="#B55437"/>
<path d="M62.8655 134.873L63.0404 132.758C63.0777 132.306 62.7418 131.909 62.2896 131.872L56.6837 131.408C56.2315 131.371 55.835 131.707 55.7976 132.159L55.6227 134.275" stroke="#603F39" stroke-width="4" stroke-miterlimit="10"/>
<path d="M62.1736 132.498C62.143 132.868 61.6897 133.026 61.437 132.761C61.2846 132.601 61.1278 132.449 60.8027 132.422C60.1188 132.366 60.0866 132.754 59.399 132.698C58.7151 132.641 58.7472 132.252 58.0633 132.196C57.7381 132.169 57.5585 132.293 57.3824 132.422C57.0854 132.646 56.6683 132.412 56.6988 132.042L56.7869 130.977C56.815 130.636 57.1144 130.383 57.4545 130.411L61.6963 130.762C62.0364 130.79 62.2901 131.089 62.262 131.429L62.1736 132.498Z" fill="#35201B"/>
<path d="M274.029 247.085L276.399 216.379C276.963 209.072 271.492 202.69 264.18 202.126L39.4085 184.778C32.0958 184.214 25.7104 189.68 25.1464 196.988L22.7766 227.694C22.2126 235.001 27.6835 241.383 34.9963 241.947L259.767 259.295C267.08 259.859 273.465 254.393 274.029 247.085Z" fill="#338759" fill-opacity="0.46"/>
<path d="M274.484 241.193L276.854 210.487C277.418 203.179 271.947 196.798 264.634 196.233L39.8634 178.886C32.5506 178.321 26.1652 183.788 25.6013 191.095L23.2314 221.801C22.6674 229.109 28.1384 235.49 35.4511 236.055L260.222 253.402C267.535 253.967 273.92 248.5 274.484 241.193Z" fill="#ABFDD0"/>
<rect x="91.8679" y="213.986" width="151" height="6.04" rx="3.02" transform="rotate(4.72623 91.8679 213.986)" fill="white"/>
<rect x="91.8679" y="213.986" width="80" height="6" rx="3" transform="rotate(4.72623 91.8679 213.986)" fill="#10B259"/>
<path d="M93.1756 208.074L93.8677 199.702L95.6855 199.853L97.9134 205.383L100.983 200.291L102.801 200.441L102.109 208.812L100.578 208.686L101.056 202.91L98.3451 207.297L97.1373 207.197L95.1839 202.424L94.7063 208.2L93.1756 208.074ZM104.341 211.646L105.966 208.734L105.608 208.704L103.757 202.976L105.42 203.114L106.737 207.425L108.816 203.395L110.442 203.529L105.967 211.78L104.341 211.646ZM114.078 209.802L114.77 201.43L120.175 201.877L120.073 203.109L116.199 202.789L116.005 205.133L119.138 205.392L119.038 206.6L115.905 206.341L115.608 209.928L114.078 209.802ZM123.303 210.709C122.705 210.66 122.186 210.488 121.744 210.195C121.303 209.902 120.97 209.513 120.745 209.029C120.52 208.544 120.433 207.999 120.483 207.393C120.533 206.78 120.706 206.244 121.001 205.787C121.304 205.33 121.693 204.989 122.169 204.763C122.654 204.531 123.207 204.44 123.829 204.491C124.411 204.539 124.915 204.71 125.34 205.002C125.766 205.294 126.084 205.673 126.294 206.14C126.513 206.6 126.6 207.1 126.555 207.643C126.548 207.73 126.536 207.822 126.52 207.917C126.512 208.012 126.5 208.112 126.483 208.215L121.975 207.842C121.969 208.307 122.098 208.683 122.363 208.97C122.636 209.257 122.98 209.418 123.395 209.452C123.706 209.478 123.971 209.432 124.189 209.313C124.416 209.188 124.591 209.017 124.713 208.803L126.268 208.931C126.125 209.297 125.909 209.624 125.621 209.913C125.34 210.195 125.002 210.408 124.605 210.552C124.215 210.696 123.781 210.749 123.303 210.709ZM123.726 205.735C123.352 205.704 123.012 205.784 122.707 205.976C122.403 206.159 122.193 206.463 122.078 206.887L125.032 207.131C125.04 206.739 124.922 206.416 124.678 206.163C124.434 205.91 124.117 205.767 123.726 205.735ZM130.57 211.31C129.972 211.26 129.453 211.089 129.011 210.796C128.57 210.502 128.237 210.114 128.012 209.629C127.787 209.145 127.7 208.6 127.75 207.994C127.801 207.38 127.973 206.845 128.268 206.387C128.571 205.931 128.96 205.59 129.436 205.364C129.921 205.131 130.474 205.041 131.096 205.092C131.678 205.14 132.182 205.31 132.607 205.602C133.033 205.894 133.351 206.274 133.561 206.741C133.78 207.2 133.867 207.701 133.822 208.243C133.815 208.331 133.803 208.422 133.787 208.517C133.779 208.613 133.767 208.712 133.751 208.815L129.242 208.443C129.236 208.908 129.365 209.284 129.63 209.571C129.904 209.858 130.247 210.019 130.662 210.053C130.973 210.079 131.238 210.033 131.456 209.914C131.683 209.788 131.858 209.618 131.98 209.404L133.535 209.532C133.392 209.898 133.176 210.225 132.888 210.514C132.607 210.796 132.269 211.009 131.872 211.153C131.482 211.297 131.049 211.349 130.57 211.31ZM130.993 206.336C130.619 206.305 130.279 206.385 129.974 206.577C129.67 206.76 129.46 207.064 129.345 207.488L132.299 207.732C132.307 207.34 132.189 207.017 131.945 206.764C131.701 206.511 131.384 206.368 130.993 206.336ZM137.407 211.875C136.881 211.832 136.425 211.71 136.04 211.509C135.656 211.301 135.357 211.035 135.143 210.713C134.929 210.39 134.814 210.027 134.799 209.625L136.342 209.752C136.371 209.987 136.482 210.197 136.675 210.382C136.877 210.559 137.146 210.662 137.481 210.689C137.816 210.717 138.064 210.669 138.227 210.546C138.398 210.424 138.49 210.275 138.505 210.1C138.526 209.844 138.428 209.664 138.212 209.558C137.997 209.444 137.694 209.326 137.302 209.205C137.052 209.129 136.798 209.039 136.542 208.938C136.285 208.836 136.05 208.717 135.837 208.579C135.632 208.433 135.47 208.259 135.35 208.057C135.231 207.846 135.184 207.597 135.207 207.31C135.251 206.784 135.495 206.359 135.939 206.034C136.391 205.711 136.996 205.58 137.753 205.643C138.455 205.701 139 205.91 139.387 206.271C139.783 206.633 139.997 207.104 140.029 207.685L138.582 207.565C138.53 207.12 138.218 206.873 137.644 206.825C137.357 206.802 137.129 206.839 136.96 206.938C136.799 207.037 136.712 207.17 136.698 207.337C136.684 207.513 136.788 207.662 137.01 207.785C137.233 207.907 137.532 208.028 137.908 208.148C138.314 208.278 138.684 208.417 139.017 208.565C139.359 208.705 139.623 208.9 139.812 209.148C140 209.388 140.077 209.72 140.042 210.142C140.02 210.51 139.897 210.833 139.673 211.111C139.45 211.39 139.144 211.597 138.755 211.734C138.366 211.87 137.917 211.917 137.407 211.875Z" fill="#1D5C3A"/>
<rect x="32.2212" y="183.967" width="46" height="46" rx="10" transform="rotate(4.72623 32.2212 183.967)" fill="#91EFBC"/>
<path d="M42.6693 204.415C42.6988 204.423 43.6606 212.936 43.6606 212.936C43.6606 212.936 47.2433 214.993 51.8687 215.36C51.8687 215.36 55.7905 215.986 60.6676 214.342L63.3257 205.797L42.6693 204.415Z" fill="#2295F2"/>
<path d="M42.6662 203.602L42.8536 205.097L54.0906 208.57L62.836 207.045L63.4356 205.133L42.6662 203.602Z" fill="#0D7AB7"/>
<path d="M37.7133 202.159L37.6552 202.862L53.8813 207.705L69.4451 204.783L69.5344 204.248L37.7133 202.159Z" fill="#0E8CE2"/>
<path d="M52.3756 200.005C52.1087 200.138 37.7186 202.155 37.7186 202.155L53.9164 206.855C53.9164 206.855 69.6942 204.256 69.5397 204.244C69.3848 204.236 52.3756 200.005 52.3756 200.005Z" fill="#33ADFF"/>
<path d="M55.2251 202.679C55.2008 202.973 54.4879 203.16 53.6358 203.089C52.7837 203.019 52.1109 202.722 52.1356 202.423C52.1599 202.129 52.8723 201.947 53.7244 202.018C54.5765 202.088 55.2494 202.385 55.2251 202.679Z" fill="#0E8CE2"/>
<path d="M54.0675 202.844L69.1552 204.161C69.1552 204.161 69.2427 203.953 67.8325 203.836L54.7848 202.542L54.0675 202.844Z" fill="#FFC973"/>
<path d="M54.9719 202.221C54.9406 202.6 54.352 202.863 53.6593 202.805C52.9667 202.748 52.4292 202.393 52.4605 202.014C52.4918 201.635 53.0804 201.373 53.773 201.43C54.4657 201.487 55.0032 201.843 54.9719 202.221Z" fill="#2295F2"/>
<path d="M54.6106 202.041C54.592 202.265 54.1831 202.417 53.6948 202.376C53.2065 202.336 52.8281 202.119 52.8466 201.895C52.8651 201.671 53.274 201.519 53.7624 201.559C54.2507 201.6 54.6295 201.812 54.6106 202.041Z" fill="#3BB9FF"/>
<path d="M68.6529 204.411L67.2283 215.817L67.4674 215.837L69.0432 204.363L68.6529 204.411Z" fill="#FFC973"/>
<path d="M67.535 214.112C67.535 214.112 66.4188 214.02 66.9984 216.476L67.691 216.533C67.691 216.533 68.6894 214.288 67.535 214.112Z" fill="#FFC973"/>
<path d="M68.0066 216.052L66.7659 215.95L66.7247 216.448L67.9654 216.551L68.0066 216.052Z" fill="#FFC973"/>
<circle cx="287" cy="71" r="26" fill="#231D20" fill-opacity="0.27"/>
<circle cx="283" cy="69" r="26" fill="#FF5AB1"/>
<path d="M283 81.5C289.904 81.5 295.5 75.9036 295.5 69C295.5 62.0964 289.904 56.5 283 56.5C276.096 56.5 270.5 62.0964 270.5 69C270.5 75.9036 276.096 81.5 283 81.5Z" stroke="white" stroke-width="2" stroke-linecap="round" stroke-linejoin="round"/>
<path d="M283 76.5C287.142 76.5 290.5 73.1421 290.5 69C290.5 64.8579 287.142 61.5 283 61.5C278.858 61.5 275.5 64.8579 275.5 69C275.5 73.1421 278.858 76.5 283 76.5Z" stroke="white" stroke-width="2" stroke-linecap="round" stroke-linejoin="round"/>
<path d="M283 71.5C284.381 71.5 285.5 70.3807 285.5 69C285.5 67.6193 284.381 66.5 283 66.5C281.619 66.5 280.5 67.6193 280.5 69C280.5 70.3807 281.619 71.5 283 71.5Z" stroke="white" stroke-width="2" stroke-linecap="round" stroke-linejoin="round"/>
<circle cx="30" cy="251" r="26" fill="#231D20" fill-opacity="0.27"/>
<circle cx="26" cy="249" r="26" fill="#46A6FF"/>
<path d="M32.4999 244.667L31.4166 244.667L31.4166 242.5C31.4166 239.51 28.9899 237.083 25.9999 237.083C23.0099 237.083 20.5833 239.51 20.5833 242.5L20.5833 244.667L19.4999 244.667C18.3083 244.667 17.3333 245.642 17.3333 246.833L17.3333 257.667C17.3333 258.858 18.3083 259.833 19.4999 259.833L32.4999 259.833C33.6916 259.833 34.6666 258.858 34.6666 257.667L34.6666 246.833C34.6666 245.642 33.6916 244.667 32.4999 244.667ZM25.9999 254.417C24.8083 254.417 23.8333 253.442 23.8333 252.25C23.8333 251.058 24.8083 250.083 25.9999 250.083C27.1916 250.083 28.1666 251.058 28.1666 252.25C28.1666 253.442 27.1916 254.417 25.9999 254.417ZM29.3583 244.667L22.6416 244.667L22.6416 242.5C22.6416 240.647 24.1474 239.142 25.9999 239.142C27.8524 239.142 29.3583 240.647 29.3583 242.5L29.3583 244.667Z" fill="white"/>
<defs>
<clipPath id="clip0_3295_1255">
<rect width="30" height="30" fill="white" transform="translate(50.4106 60.0483) rotate(4.72623)"/>
</clipPath>
</defs>
</svg>
