<svg width="305" height="296" viewBox="0 0 305 296" fill="none" xmlns="http://www.w3.org/2000/svg">
<g clip-path="url(#clip0_9514_138652)">
<path d="M282.665 44.8972L252.389 39.2502C245.185 37.9063 238.254 42.6619 236.909 49.872L195.572 271.489C194.228 278.7 198.978 285.634 206.183 286.978L236.458 292.625C243.663 293.969 250.594 289.213 251.939 282.003L293.275 60.3856C294.62 53.1755 289.87 46.241 282.665 44.8972Z" fill="#8D3FE0"/>
<path d="M276.852 43.8137L246.577 38.1667C239.372 36.8228 232.441 41.5784 231.096 48.7885L189.76 270.406C188.415 277.616 193.166 284.55 200.371 285.894L230.646 291.541C237.851 292.885 244.782 288.13 246.127 280.919L287.463 59.3021C288.808 52.092 284.057 45.1576 276.852 43.8137Z" fill="#A84EF5"/>
<path d="M210.63 86.1604L180.354 80.5134C173.149 79.1695 166.218 83.9251 164.874 91.1352L133.505 259.311C132.16 266.521 136.911 273.455 144.116 274.799L174.391 280.446C181.596 281.79 188.527 277.035 189.872 269.824L221.24 101.649C222.585 94.4386 217.835 87.5042 210.63 86.1604Z" fill="#B560E2"/>
<path d="M204.817 85.0764L174.542 79.4294C167.337 78.0855 160.406 82.8411 159.061 90.0512L127.693 258.227C126.348 265.437 131.098 272.371 138.303 273.715L168.579 279.362C175.784 280.706 182.715 275.951 184.059 268.74L215.428 100.565C216.773 93.3547 212.022 86.4202 204.817 85.0764Z" fill="#DB7BFF"/>
<path d="M138.04 130.371L107.764 124.724C100.56 123.38 93.6285 128.136 92.2837 135.346L71.3249 247.713C69.98 254.923 74.7305 261.858 81.9355 263.202L112.211 268.849C119.416 270.193 126.347 265.437 127.692 258.227L148.65 145.86C149.995 138.65 145.245 131.715 138.04 130.371Z" fill="#8D3FE0"/>
<path d="M132.231 129.287L101.956 123.64C94.7509 122.296 87.8199 127.052 86.4751 134.262L65.5163 246.629C64.1714 253.839 68.922 260.774 76.1269 262.118L106.402 267.765C113.607 269.109 120.538 264.353 121.883 257.143L142.842 144.776C144.187 137.566 139.436 130.631 132.231 129.287Z" fill="#A84EF5"/>
<path d="M66.9421 166.592L36.6668 160.945C29.4618 159.601 22.5309 164.357 21.186 171.567L9.14633 236.116C7.80149 243.326 12.552 250.26 19.757 251.604L50.0323 257.251C57.2372 258.595 64.1682 253.839 65.513 246.629L77.5527 182.08C78.8975 174.87 74.147 167.936 66.9421 166.592Z" fill="#B560E2"/>
<path d="M61.1335 165.509L30.8582 159.862C23.6533 158.518 16.7223 163.273 15.3774 170.483L3.33774 235.032C1.99289 242.242 6.74343 249.177 13.9484 250.521L44.2237 256.168C51.4286 257.511 58.3596 252.756 59.7044 245.546L71.7441 180.997C73.089 173.787 68.3384 166.852 61.1335 165.509Z" fill="#DB7BFF"/>
</g>
<path d="M300.001 103C299.012 103 298.045 102.707 297.223 102.158C296.4 101.608 295.759 100.828 295.381 99.9139C295.002 99.0002 294.903 97.9948 295.096 97.0248C295.289 96.0548 295.765 95.1638 296.464 94.4645C297.164 93.7651 298.055 93.2889 299.025 93.096C299.995 92.9031 301 93.0022 301.914 93.3808C302.828 93.7593 303.608 94.4004 304.158 95.2227C304.707 96.0451 305 97.012 305 98.001C304.998 99.3262 304.471 100.597 303.534 101.534C302.597 102.471 301.326 102.998 300.001 103ZM300.001 96.4361C299.691 96.4359 299.388 96.5276 299.13 96.6998C298.872 96.8719 298.671 97.1166 298.552 97.403C298.433 97.6894 298.402 98.0046 298.462 98.3087C298.523 98.6129 298.672 98.8923 298.891 99.1117C299.11 99.3311 299.389 99.4806 299.693 99.5412C299.997 99.6019 300.313 99.571 300.599 99.4526C300.886 99.3341 301.131 99.1333 301.303 98.8756C301.475 98.6179 301.568 98.3148 301.568 98.0048C301.568 97.7986 301.528 97.5944 301.449 97.4039C301.371 97.2133 301.256 97.04 301.11 96.894C300.965 96.748 300.792 96.6321 300.601 96.5528C300.411 96.4736 300.207 96.4326 300.001 96.4323L300.001 96.4361Z" fill="#0FCE65"/>
<path d="M96.001 279C95.012 279 94.0451 278.707 93.2227 278.158C92.4004 277.608 91.7593 276.828 91.3808 275.914C91.0022 275 90.9031 273.995 91.096 273.025C91.2889 272.055 91.7651 271.164 92.4645 270.464C93.1638 269.765 94.0548 269.289 95.0248 269.096C95.9948 268.903 97.0002 269.002 97.9139 269.381C98.8275 269.759 99.6084 270.4 100.158 271.223C100.707 272.045 101 273.012 101 274.001C100.998 275.326 100.471 276.597 99.5339 277.534C98.5967 278.471 97.3262 278.998 96.001 279ZM96.001 272.436C95.6909 272.436 95.3877 272.528 95.1298 272.7C94.8719 272.872 94.6708 273.117 94.552 273.403C94.4331 273.689 94.4019 274.005 94.4622 274.309C94.5225 274.613 94.6717 274.892 94.8908 275.112C95.1099 275.331 95.3891 275.481 95.6932 275.541C95.9973 275.602 96.3125 275.571 96.5991 275.453C96.8856 275.334 97.1306 275.133 97.303 274.876C97.4754 274.618 97.5675 274.315 97.5677 274.005C97.5681 273.799 97.5279 273.594 97.4493 273.404C97.3708 273.213 97.2555 273.04 97.11 272.894C96.9645 272.748 96.7917 272.632 96.6014 272.553C96.4111 272.474 96.2071 272.433 96.001 272.432L96.001 272.436Z" fill="#FFDA3E"/>
<path d="M84.6728 59C83.6838 59.0002 82.717 58.7071 81.8946 58.1577C81.0722 57.6084 80.4312 56.8275 80.0527 55.9139C79.6741 55.0002 79.575 53.9948 79.7679 53.0248C79.9608 52.0548 80.437 51.1638 81.1363 50.4645C81.8357 49.7651 82.7267 49.2889 83.6967 49.096C84.6667 48.9031 85.6721 49.0022 86.5857 49.3808C87.4994 49.7593 88.2803 50.4004 88.8296 51.2227C89.379 52.0451 89.6721 53.012 89.6719 54.001C89.6701 55.3262 89.1429 56.5967 88.2057 57.5339C87.2686 58.471 85.9981 58.9982 84.6728 59ZM84.6728 52.4361C84.3628 52.4359 84.0596 52.5276 83.8017 52.6998C83.5438 52.8719 83.3427 53.1166 83.2238 53.403C83.105 53.6894 83.0738 54.0046 83.1341 54.3087C83.1944 54.6129 83.3435 54.8923 83.5627 55.1117C83.7818 55.3311 84.061 55.4806 84.3651 55.5412C84.6692 55.6019 84.9844 55.571 85.2709 55.4526C85.5575 55.3341 85.8024 55.1333 85.9749 54.8756C86.1473 54.6179 86.2394 54.3148 86.2396 54.0048C86.24 53.7986 86.1998 53.5944 86.1212 53.4039C86.0427 53.2133 85.9274 53.04 85.7819 52.894C85.6364 52.748 85.4636 52.6321 85.2733 52.5528C85.083 52.4736 84.879 52.4326 84.6728 52.4323V52.4361Z" fill="#FFDA3E"/>
<circle cx="51.25" cy="127.507" r="22.75" fill="#231D20" fill-opacity="0.27"/>
<circle cx="47.75" cy="125.757" r="22.75" fill="#FF5AB1"/>
<g clip-path="url(#clip1_9514_138652)">
<path d="M56.4744 122.131L51.1992 122.131L51.1992 134.255L56.4744 134.255L56.4744 122.131Z" fill="white"/>
<path d="M50.2518 125.604L44.9766 125.604L44.9766 134.255L50.2518 134.255L50.2518 125.604Z" fill="white"/>
<path d="M44.0565 128.488L38.7812 128.488L38.7813 134.255L44.0565 134.255L44.0565 128.488Z" fill="white"/>
<path d="M50.3164 114.857L52.0202 115.677C48.3505 124.359 38.9141 123.606 38.9141 123.606C48.0884 125.604 51.6926 120.821 53.9534 116.954L55.6244 117.97L54.7725 112.957L50.3164 114.857Z" fill="white"/>
<path d="M57.6557 135.074L37.7344 135.074L37.7344 136.024L57.6557 136.024L57.6557 135.074Z" fill="white"/>
</g>
<defs>
<clipPath id="clip0_9514_138652">
<rect width="253" height="252" fill="white" transform="translate(47 0.940918) rotate(10.5655)"/>
</clipPath>
<clipPath id="clip1_9514_138652">
<rect width="27.1625" height="25" fill="white" transform="translate(34 112.007)"/>
</clipPath>
</defs>
</svg>
